Motion_kv03_j
version=1
nRows=6
nColumns=43
inDegrees=yes
endheader
time	pelvis_tilt	pelvis_list	pelvis_rotation	pelvis_tx	pelvis_ty	pelvis_tz	hip_flexion_r	hip_adduction_r	hip_rotation_r	knee_angle_r	ankle_angle_r	subtalar_angle_r	mtp_angle_r	hip_flexion_l	hip_adduction_l	hip_rotation_l	knee_angle_l	ankle_angle_l	subtalar_angle_l	mtp_angle_l	lumbar_extension	lumbar_bending	lumbar_rotation	neck_flexion	neck_lateral_bending	neck_rotation	arm_flex_r	arm_add_r	arm_rot_r	elbow_flex_r	pro_sup_r	wrist_flex_r	wrist_dev_r	hand_finger_flex_r	arm_flex_l	arm_add_l	arm_rot_l	elbow_flex_l	pro_sup_l	wrist_flex_l	wrist_dev_l	hand_finger_flex_l
      0.00250000	     -1.76517337	     29.48719504	    -84.28429040	     -0.01955786	      0.82671623	      0.22713801	     50.83583769	     -5.58169344	     -3.53295619	    -52.90634036	     31.04808348	      0.08707740	     -6.21816167	     52.73460326	     -0.31276906	      1.01910358	    -51.98476757	     32.02971033	     -4.81309712	    -14.04425716	    -13.28619348	     -0.57824966	      1.40086298	     33.46285020	     -0.53112991	     -0.65878511	    -13.75612328	    -22.28713090	    -16.30372490	    109.59762472	    138.64746648	    -43.84984298	    -24.99999983	     50.28301706	      6.22670519	    -29.18368071	     -1.63610428	    115.47615755	    123.85645986	    -57.16404060	    -12.54230693	     65.27584735
      0.00500000	     -1.74028604	     29.53738542	    -84.12230158	     -0.01924552	      0.82481936	      0.22734360	     51.20624030	     -5.79990710	     -3.65193625	    -53.65132621	     31.16552949	      0.21381277	     -6.33546532	     53.07753054	     -0.19354102	      1.03467050	    -52.58272701	     32.44616493	     -4.19492375	    -14.02358647	    -13.42316973	     -0.56089394	      1.38084602	     33.78679562	     -0.66009523	     -0.64105962	    -12.91022185	    -22.63856573	    -16.53238431	    110.36821354	    139.16220546	    -44.51293301	    -24.99999983	     50.47119589	      7.89283354	    -29.31827202	     -1.32401688	    115.91458460	    123.96585308	    -56.40416453	    -13.07497071	     64.89026147
      0.00750000	     -1.78347155	     29.51854899	    -84.13762327	     -0.01938272	      0.82295533	      0.22765574	     51.50543891	     -5.75824211	     -3.62735163	    -54.33214393	     31.34612845	      0.21690020	     -6.32559720	     53.36022600	     -0.25180651	      1.01138001	    -53.22003486	     32.67553800	     -4.29001688	    -14.00053376	    -13.56672861	     -0.48735914	      1.33468265	     33.85011064	     -0.76036200	     -0.66062585	    -11.74240140	    -23.12315500	    -16.35318807	    111.02908786	    139.26576694	    -44.56549721	    -24.99999983	     50.43244949	      9.31444333	    -29.53525745	     -1.20720239	    116.35982819	    124.10206449	    -56.29628527	    -13.15679945	     64.75974875
      0.01000000	     -1.94478933	     29.65965346	    -84.09815806	     -0.01960627	      0.82074643	      0.22774786	     51.97184505	     -5.66855844	     -3.67118355	    -54.98908472	     31.62157118	      0.60755345	     -6.37546235	     53.84182198	     -0.41166370	      1.03921889	    -53.87081852	     33.10071174	     -4.05991751	    -13.97688517	    -13.50675468	     -0.40103814	      1.93471998	     33.88224409	     -1.00979593	     -0.91793445	    -11.32055132	    -23.45124143	    -17.03997526	    111.86461364	    139.69105150	    -45.22547213	    -24.99999983	     50.06026817	     11.51632020	    -29.65493137	     -0.14484400	    116.50786697	    125.41964604	    -55.73404329	    -12.22182929	     63.53519863
      0.01250000	     -1.91913680	     29.64560743	    -84.11264985	     -0.01958167	      0.81885060	      0.22794630	     52.28248779	     -5.71122875	     -3.65312234	    -55.67078766	     31.73023537	      0.37772405	     -6.44100709	     54.13269856	     -0.38415026	      1.02776289	    -54.51301513	     33.27431538	     -4.11035277	    -13.98382694	    -13.64966390	     -0.43123314	      2.16571405	     33.89991589	     -1.17714588	     -1.51145342	    -10.52363772	    -23.88379106	    -17.40708812	    112.62418356	    139.87938557	    -45.11776713	    -24.99999983	     49.45053747	     13.35409093	    -29.78815291	      0.48132303	    116.87243221	    127.13858122	    -55.25987451	    -10.55501172	     61.94903123
      0.01500000	     -1.96336065	     29.64589254	    -84.10210031	     -0.01961032	      0.81698504	      0.22822572	     52.59655105	     -5.68950504	     -3.61362968	    -56.34710411	     31.90209382	      0.41415642	     -6.41599491	     54.42157851	     -0.42139151	      1.00830398	    -55.10925372	     33.51472830	     -4.17012890	    -13.95421944	    -13.77137677	     -0.35200221	      2.09416604	     34.04620143	     -1.28295206	     -1.40014639	     -9.28600462	    -24.35914873	    -17.26053089	    113.15650701	    139.96727730	    -45.09500055	    -24.99999983	     49.34336431	     14.81896817	    -29.95136939	      0.60197768	    117.22162682	    127.32092124	    -55.12732965	    -10.59259135	     61.84150092
